<svg viewBox="0 0 173.93 206.49" xmlns="http://www.w3.org/2000/svg">
    <path
        d="m170.29 160.92c-3.12 7.21-6.82 13.85-11.1 19.96-5.84 8.32-10.62 14.08-14.3 17.28-5.71 5.25-11.83 7.94-18.38 8.09-4.7 0-10.38-1.34-16.98-4.05-6.62-2.7-12.71-4.04-18.28-4.04s-12.1 1.34-18.8 4.04c-6.71 2.72-12.11 4.13-16.24 4.27-6.28.27-12.54-2.5-18.8-8.31-3.99-3.48-8.98-9.45-14.96-17.9-6.41-9.02-11.69-19.49-15.82-31.42-4.42-12.89-6.64-25.36-6.64-37.45 0-13.84 2.99-25.77 8.98-35.78 4.71-8.03 10.97-14.37 18.81-19.02s16.31-7.02 25.43-7.18c4.99 0 11.53 1.54 19.67 4.58 8.11 3.04 13.32 4.59 15.6 4.59 1.71 0 7.49-1.8 17.3-5.4 9.27-3.34 17.1-4.72 23.51-4.17 17.37 1.4 30.42 8.25 39.11 20.59-15.54 9.41-23.22 22.6-23.07 39.52.14 13.18 4.92 24.14 14.31 32.85 4.26 4.04 9.01 7.16 14.3 9.38-1.15 3.33-2.36 6.51-3.65 9.57zm-39.85-156.79c0 10.33-3.77 19.97-11.29 28.89-9.08 10.61-20.05 16.74-31.96 15.77-.15-1.24-.24-2.54-.24-3.91 0-9.91 4.32-20.52 11.98-29.2 3.83-4.39 8.69-8.04 14.59-10.96 5.89-2.87 11.46-4.46 16.7-4.73.15 1.38.22 2.76.22 4.13z"
        fill="#010101" />
</svg>