<svg fill="none" height="23" viewBox="0 0 23 23" width="23" xmlns="http://www.w3.org/2000/svg">
    <path
        d="m22.9992 11.4996c0-6.35084-5.1487-11.4996-11.4996-11.4996-6.35084 0-11.4996 5.14876-11.4996 11.4996 0 5.7399 4.20503 10.4969 9.70261 11.3601v-8.0359h-2.92014v-3.3242h2.92014v-2.53373c0-2.88181 1.71649-4.47412 4.34379-4.47412 1.2581 0 2.5744.22463 2.5744.22463v2.82967h-1.4497c-1.4283 0-1.8737.88623-1.8737 1.79547v2.15728h3.1892l-.5098 3.3242h-2.6794v8.0359c5.4976-.8624 9.7026-5.6202 9.7026-11.3601z"
        fill="#4373b9" />
    <path
        d="m15.9761 14.8234.5098-3.3241h-3.1892v-2.15734c0-.90924.4454-1.79547 1.8736-1.79547h1.4497v-2.82968s-1.3163-.22462-2.5743-.22462c-2.6265 0-4.34383 1.59231-4.34383 4.47411v2.5338h-2.92013v3.3241h2.92013v8.0359c.58573.092 1.18523.1396 1.79703.1396s1.2113-.0476 1.797-.1396v-8.0359h2.6794z"
        fill="#fff" />
</svg>