<?xml version="1.0" encoding="UTF-8"?>
<svg data-name="Layer 2" id="Layer_2" viewBox="0 0 573.08 573.08"
    xmlns="http://www.w3.org/2000/svg">
    <defs>
        <style>
            .cls-1 {
            fill: #eee;
            }

            .cls-2 {
            fill: #f22e63;
            }
        </style>
    </defs>
    <g data-name="Layer 1" id="Layer_1-2">
        <rect class="cls-1" height="573.08" rx="71.51" ry="71.51" width="573.08" />
        <g>
            <path class="cls-2"
                d="m286.45,313.64c14.02.79,28.11.9,42.03,2.49,31.05,3.54,60.29,13.37,88.19,27.29,25.79,12.87,49.37,28.88,69.56,49.58,11.89,12.18,21.86,25.71,28.56,41.53,9.23,21.81,4.59,42.09-13.37,57.56-2.78,2.39-5.64,4.7-8.24,7.28-1.48,1.46-2.63,1.29-4.25.43-19.08-10.06-38.2-20.07-57.29-30.1-13.42-7.05-26.8-14.17-40.26-21.14-1.9-.99-2.59-2.09-2.54-4.23.14-7.13-.08-14.27.13-21.39.08-2.75-.93-3.89-3.42-4.74-17.59-6.05-35.66-9.96-54.08-12.29-24.03-3.04-48.14-3.54-72.27-1.74-24.75,1.84-49.07,6.05-72.55,14.4-1.86.66-2.5,1.44-2.47,3.42.12,7.23-.1,14.47.11,21.7.08,2.76-.87,4.09-3.27,5.34-25.83,13.41-51.59,26.94-77.36,40.46-6.49,3.4-12.97,6.81-19.41,10.3-1.63.89-2.84.93-4.29-.42-4.47-4.16-9.46-7.82-13.54-12.32-14.27-15.74-16.03-33.53-7.92-52.76,8.84-20.95,23.24-37.7,40.14-52.39,34.61-30.1,74.6-49.86,119-60.9,22.6-5.62,45.55-7.57,68.79-6.43l.03-.89Z" />
            <path class="cls-2"
                d="m195.07,317.19c-.11-.89-.25-1.49-.24-2.09.02-25.77-.33-51.55.19-77.31.6-29.54,25.01-53.4,54.57-53.72,24.55-.27,49.1-.27,73.65.02,30.04.35,54.24,23.97,54.88,54.01.55,25.76.17,51.54.19,77.31,0,.49-.14.99-.25,1.67-5.67-1.61-11.2-3.26-16.78-4.75-23.79-6.35-48.01-8.57-72.59-8.04-14.86.32-29.72-.24-44.53,1.75-15.99,2.15-31.63,5.69-47,10.52-.57.18-1.15.35-2.08.63Z" />
            <path class="cls-2"
                d="m212.07,184.11c-2.97,2.59-5.67,4.73-8.12,7.13-14.07,13.72-20.93,30.47-20.9,50.11.04,25.67-.03,51.34.03,77.01,0,2.25-.58,3.36-2.81,4.23-32.85,12.78-62.81,30.32-88.86,54.25-1.41,1.29-2.8,2.61-4.59,4.27-.09-1.39-.21-2.34-.2-3.29,0-46.45-.03-92.9.05-139.35.05-28.22,23.92-53.46,52.16-54.22,24.22-.65,48.47-.13,73.24-.13Z" />
            <path class="cls-2"
                d="m360.59,183.99c4.29,0,7.8,0,11.32,0,19.66,0,39.32-.32,58.97.11,24.26.53,41.35,12.44,51.39,34.41,2.99,6.55,4.22,13.58,4.22,20.8,0,46.34,0,92.68,0,139.02,0,.67-.09,1.35-.19,2.62-1.85-1.67-3.32-2.99-4.78-4.33-24.28-22.28-52.08-38.94-82.4-51.55-1.13-.47-2.26-.92-3.39-1.38q-5.67-2.31-5.67-8.61c-.02-25.67.33-51.34-.17-77-.43-21.79-10.01-39.28-27.38-52.47-.44-.34-.86-.72-1.92-1.62Z" />
            <path class="cls-2"
                d="m337.49,116.14c-.51,29.52-24.67,52.78-54.38,52.35-29.07-.42-52.56-24.97-52.06-54.42.49-28.96,24.85-52.63,53.68-52.15,29.95.5,53.27,24.46,52.76,54.22Z" />
            <path class="cls-2"
                d="m365.32,125.19c0-24.05,19.2-43.52,43.01-43.62,24.32-.1,43.78,19.43,43.74,43.9-.04,23.35-19.63,43.05-42.76,43.01-24.59-.05-44-19.15-43.99-43.28Z" />
            <path class="cls-2"
                d="m203.28,125.22c.36,23.21-19.08,42.86-42.79,43.26-23.84.39-43.53-18.76-43.9-42.71-.37-24.16,18.7-43.88,42.74-44.19,24.25-.32,43.56,18.86,43.94,43.64Z" />
            <path class="cls-2"
                d="m488.82,503.12c-3.21,2.81-5.9,5.3-8.78,7.54-.59.46-2.1.27-2.91-.15-13.39-6.89-26.74-13.86-40.09-20.82-15.25-7.95-30.47-15.95-45.75-23.82-1.8-.93-2.53-1.94-2.43-3.97.17-3.44.05-6.9.05-11.18,33.48,17.56,66.45,34.85,99.92,52.4Z" />
            <path class="cls-2"
                d="m84.35,503.12c33.42-17.54,66.37-34.84,99.85-52.41,0,4.54.11,8.66-.1,12.76-.04.79-1.21,1.78-2.09,2.24-23.35,12.23-46.73,24.4-70.11,36.57-5.32,2.77-10.68,5.49-15.95,8.36-1.4.76-2.32.68-3.46-.37-2.53-2.34-5.17-4.56-8.14-7.17Z" />
        </g>
    </g>
</svg>